<svg xmlns="http://www.w3.org/2000/svg" xmlns:xlink="http://www.w3.org/1999/xlink" version="1.1" x="0px" y="0px" width="100px" height="100px" viewBox="0 0 100 100" enable-background="new 0 0 100 100" xml:space="preserve">
<g id="Captions">
	<rect x="-192" width="185" height="99"/>
	<rect y="-36" width="100" height="30"/>
	<text transform="matrix(1 0 0 1 66 -19.5)" fill="#000000" font-family="'Helvetica'" font-size="2.4">http://thenounproject.com</text>
	<text transform="matrix(1 0 0 1 7.166 -24.5)"><tspan x="0" y="0" fill="#000000" font-family="'Helvetica-Bold'" font-size="6.1578">The Noun Project</tspan><tspan x="1.12" y="4.8" fill="#000000" font-family="'Helvetica-Bold'" font-size="4">Icon Template</tspan></text>
	<text transform="matrix(1 0 0 1 -178.5 10.5)" fill="#000000" font-family="'Helvetica-Bold'" font-size="6.1578">Reminders</text>
	<line fill="#000000" stroke="#FFFFFF" stroke-miterlimit="10" x1="8" y1="-14.5" x2="18" y2="-14.5"/>
	<line fill="#000000" stroke="#FFFFFF" stroke-miterlimit="10" x1="-179" y1="16.5" x2="-162" y2="16.5"/>
	<g>
		<g>
			<g>
				<rect x="-170.802" y="31.318" fill="#000000" width="8.721" height="8.642"/>
				<path fill="#000000" d="M-164.455,42.312h4.747v-4.703h-4.747V42.312z M-159.266,42.749h-5.63V37.17h5.63V42.749      L-159.266,42.749z M-166.221,44.062h8.279v-8.203h-8.279V44.062L-166.221,44.062z M-157.5,44.5h-9.163v-9.079h9.163V44.5      L-157.5,44.5z"/>
				<polygon fill="#000000" points="-166.149,44.133 -166.292,43.991 -158.013,35.787 -157.871,35.929     "/>
			</g>
		</g>
	</g>
	<rect x="-179" y="58" fill="none" width="35" height="32.5"/>
	<text transform="matrix(1 0 0 1 -179 60.1572)"><tspan x="0" y="0" fill="#000000" font-family="'Helvetica-Bold'" font-size="3">Strokes</tspan><tspan x="0" y="5" fill="#000000" font-family="'Helvetica'" font-size="2.4">Try to keep strokes at 4px</tspan><tspan x="0" y="10" fill="#000000" font-family="'Helvetica'" font-size="2.4">Minimum stroke weight is 2px</tspan><tspan x="0" y="14.5" fill="#000000" font-family="'Helvetica'" font-size="2.4">For thicker strokes use even </tspan><tspan x="0" y="17.5" fill="#000000" font-family="'Helvetica'" font-size="2.4">numbers: 6px, 8px etc.</tspan><tspan x="0" y="22" fill="#000000" font-family="'Helvetica-Bold'" font-size="2.4">Remember to expand strokes </tspan><tspan x="0" y="25" fill="#000000" font-family="'Helvetica-Bold'" font-size="2.4">before saving as an SVG </tspan></text>
	<rect x="-136.5" y="58" fill="none" width="35" height="32.5"/>
	<text transform="matrix(1 0 0 1 -136.5 60.1572)"><tspan x="0" y="0" fill="#000000" font-family="'Helvetica-Bold'" font-size="3">Size</tspan><tspan x="0" y="5" fill="#000000" font-family="'Helvetica'" font-size="2.4">Cannot be wider or taller than </tspan><tspan x="0" y="8.5" fill="#000000" font-family="'Helvetica'" font-size="2.4">100px (artboard size)</tspan><tspan x="0" y="13.5" fill="#000000" font-family="'Helvetica'" font-size="2.4">Scale your icon to fill as much of </tspan><tspan x="0" y="16.5" fill="#000000" font-family="'Helvetica'" font-size="2.4">the artboard as possible</tspan></text>
	<rect x="-94" y="58" fill="none" width="35" height="32.5"/>
	<text transform="matrix(1 0 0 1 -94 60.1572)"><tspan x="0" y="0" fill="#000000" font-family="'Helvetica-Bold'" font-size="3">Ungroup</tspan><tspan x="0" y="5" fill="#000000" font-family="'Helvetica'" font-size="2.4">If your design has more than one </tspan><tspan x="0" y="8" fill="#000000" font-family="'Helvetica'" font-size="2.4">shape, make sure to ungroup</tspan></text>
	<rect x="-50" y="58" fill="none" width="35" height="32.5"/>
	<text transform="matrix(1 0 0 1 -50 60.1572)"><tspan x="0" y="0" fill="#000000" font-family="'Helvetica-Bold'" font-size="3">Save as</tspan><tspan x="0" y="5" fill="#000000" font-family="'Helvetica'" font-size="2.4">Save as .SVG and make sure </tspan><tspan x="0" y="8" fill="#000000" font-family="'Helvetica'" font-size="2.4">&#8220;Use Artboards&#8221; is checked</tspan></text>
	<text transform="matrix(1.0074 0 0 1 -125.542 30.5933)" fill="#000000" font-family="'Helvetica'" font-size="2.5731">100px</text>
	<text transform="matrix(1.0074 0 0 1 -41 39)" fill="#000000" font-family="'Helvetica-Bold'" font-size="5.1462">.SVG</text>
	<rect x="-126.514" y="34.815" fill="#000000" width="10.261" height="10.185"/>
	<rect x="-126.477" y="31.766" fill="#000000" width="0.522" height="2.337"/>
	<rect x="-116.812" y="31.766" fill="#000000" width="0.523" height="2.337"/>
	<rect x="-127" y="32.337" fill="#000000" width="11.233" height="0.572"/>
	<g>
		<rect x="-83.805" y="33.844" fill="#000000" width="10.305" height="10.156"/>
		<rect x="-76.809" y="28.707" fill="#000000" width="3.308" height="3.261"/>
	</g>
	<rect x="-178.5" y="22.5" fill="#000000" stroke="#FFFFFF" stroke-miterlimit="10" width="30" height="30"/>
	<rect x="-136.5" y="22.5" fill="#000000" stroke="#FFFFFF" stroke-miterlimit="10" width="30" height="30"/>
	<rect x="-93.5" y="22.5" fill="#000000" stroke="#FFFFFF" stroke-miterlimit="10" width="30" height="30"/>
	<rect x="-49.5" y="22.5" fill="#000000" stroke="#FFFFFF" stroke-miterlimit="10" width="30" height="30"/>
</g>
<g id="Your_Icon">
	<path d="M98.93,69.584l-9.774-41.812c-0.039-0.166-0.119-0.319-0.233-0.445c-5.56-6.115-11.858-9.216-18.72-9.216   c-9.882,0-17.836,6.398-20.202,8.52c-2.365-2.122-10.319-8.52-20.202-8.52c-6.862,0-13.16,3.101-18.719,9.216   c-0.115,0.126-0.195,0.279-0.234,0.445l-9.818,42c-0.097,0.413,0.078,0.843,0.437,1.071c0.357,0.227,0.821,0.204,1.155-0.058   c8.077-6.346,16.243-9.563,24.271-9.563c2.388,0,4.614,0.3,6.68,0.777c-7.889-1.049-18.173,0.773-30.186,10.214   c-0.435,0.341-0.51,0.97-0.168,1.404s0.97,0.511,1.404,0.168c16.791-13.192,29.735-11.046,37.266-7.379   c-7.705-3.123-20.183-4.015-36.501,8.807c-0.435,0.341-0.51,0.97-0.168,1.404s0.97,0.51,1.404,0.168   c16.133-12.677,28.026-11.524,35.094-8.423c-1.439-0.498-3.049-0.895-4.834-1.113c-8.927-1.095-18.846,2.597-29.495,10.964   c-0.435,0.341-0.51,0.97-0.168,1.404s0.97,0.511,1.404,0.168c11.145-8.757,21.702-12.249,30.523-10.095   c6.627,1.617,10.038,5.882,10.07,5.923c0.379,0.486,1.2,0.486,1.579,0c0.042-0.054,4.255-5.36,12.577-6.38   c8.37-1.018,17.8,2.525,28.016,10.552C91.565,79.931,91.783,80,91.999,80c0.297,0,0.59-0.131,0.787-0.382   c0.342-0.435,0.266-1.063-0.168-1.404c-10.65-8.368-20.57-12.059-29.495-10.964c-1.496,0.184-2.862,0.496-4.115,0.884   c0.855-0.342,1.769-0.656,2.75-0.918c9.497-2.534,20.433,0.777,31.624,9.57C93.565,76.931,93.783,77,93.999,77   c0.297,0,0.59-0.131,0.787-0.382c0.342-0.435,0.266-1.063-0.168-1.404c-16.311-12.816-28.784-11.931-36.49-8.812   c7.534-3.664,20.474-5.801,37.254,7.384C95.565,73.931,95.783,74,95.999,74c0.297,0,0.59-0.131,0.787-0.382   c0.342-0.435,0.266-1.063-0.168-1.404c-12.011-9.438-22.293-11.262-30.182-10.215c2.063-0.477,4.289-0.776,6.675-0.776   c8.027,0,16.193,3.218,24.271,9.563C97.562,70.928,97.781,71,98,71c0.01,0.001,0.015,0,0.02,0c0.553,0,1-0.447,1-1   C99.02,69.852,98.987,69.711,98.93,69.584z M73.111,59.223c-12.323,0-20.657,7.001-23.111,9.355   c-2.455-2.354-10.791-9.355-23.111-9.355c-7.745,0-15.567,2.799-23.289,8.326l9.132-39.066c5.121-5.555,10.861-8.371,17.065-8.371   c9.7,0,17.672,6.907,19.208,8.325C49.056,32.715,49.482,67,50,67s0.944-34.285,0.995-38.563c1.536-1.418,9.509-8.325,19.208-8.325   c6.204,0,11.944,2.816,17.065,8.371L96.4,67.549C88.679,62.021,80.855,59.223,73.111,59.223z"/>
</g>
</svg>